<mxfile host="Electron" modified="2024-04-04T23:43:34.194Z" agent="Mozilla/5.0 (Macintosh; Intel Mac OS X 10_15_7) AppleWebKit/537.36 (KHTML, like Gecko) draw.io/24.1.0 Chrome/120.0.6099.109 Electron/28.1.0 Safari/537.36" etag="VYxFd1Be9_KpPD0mUMxR" version="24.1.0" type="device">
  <diagram name="Page-1" id="-EvrlLkQdFm9AHcE0MoZ">
    <mxGraphModel dx="954" dy="614" grid="1" gridSize="10" guides="1" tooltips="1" connect="1" arrows="1" fold="1" page="1" pageScale="1" pageWidth="1169" pageHeight="827" math="0" shadow="0">
      <root>
        <mxCell id="0" />
        <mxCell id="1" parent="0" />
        <mxCell id="UJ5w2Nz41oWsydYPGNHi-1" value="" style="rounded=1;whiteSpace=wrap;html=1;fillColor=#2708E3;" vertex="1" parent="1">
          <mxGeometry x="30" y="90" width="250" height="140" as="geometry" />
        </mxCell>
        <mxCell id="UJ5w2Nz41oWsydYPGNHi-2" value="" style="rounded=1;whiteSpace=wrap;html=1;fillColor=#2708E3;" vertex="1" parent="1">
          <mxGeometry x="520" y="90" width="250" height="140" as="geometry" />
        </mxCell>
        <mxCell id="UJ5w2Nz41oWsydYPGNHi-4" value="" style="rounded=0;whiteSpace=wrap;html=1;" vertex="1" parent="1">
          <mxGeometry x="520" y="430" width="274" height="150" as="geometry" />
        </mxCell>
        <mxCell id="UJ5w2Nz41oWsydYPGNHi-16" style="edgeStyle=orthogonalEdgeStyle;rounded=0;orthogonalLoop=1;jettySize=auto;html=1;entryX=0;entryY=0.5;entryDx=0;entryDy=0;dashed=1;strokeWidth=2;" edge="1" parent="1" source="UJ5w2Nz41oWsydYPGNHi-6" target="UJ5w2Nz41oWsydYPGNHi-2">
          <mxGeometry relative="1" as="geometry">
            <mxPoint x="430" y="160" as="targetPoint" />
          </mxGeometry>
        </mxCell>
        <mxCell id="UJ5w2Nz41oWsydYPGNHi-6" value="&lt;div&gt;&lt;font style=&quot;font-size: 18px;&quot;&gt;SIOUX Client&lt;/font&gt;&lt;/div&gt;&lt;div&gt;&lt;font style=&quot;font-size: 18px;&quot;&gt;[Person]&lt;/font&gt;&lt;/div&gt;&lt;div&gt;&lt;br&gt;&lt;/div&gt;" style="text;html=1;align=center;verticalAlign=middle;whiteSpace=wrap;rounded=0;" vertex="1" parent="1">
          <mxGeometry x="40" y="95" width="240" height="130" as="geometry" />
        </mxCell>
        <mxCell id="UJ5w2Nz41oWsydYPGNHi-7" value="&lt;div&gt;&lt;font style=&quot;font-size: 18px;&quot;&gt;Secretary&lt;/font&gt;&lt;/div&gt;&lt;div&gt;&lt;font style=&quot;font-size: 18px;&quot;&gt;[Person]&lt;/font&gt;&lt;/div&gt;&lt;div&gt;&lt;font style=&quot;font-size: 18px;&quot;&gt;&lt;br&gt;&lt;/font&gt;&lt;/div&gt;&lt;div&gt;&lt;font style=&quot;font-size: 18px;&quot;&gt;a customer of the website&lt;/font&gt;&lt;/div&gt;" style="text;html=1;align=center;verticalAlign=middle;whiteSpace=wrap;rounded=0;" vertex="1" parent="1">
          <mxGeometry x="530" y="100" width="230" height="130" as="geometry" />
        </mxCell>
        <mxCell id="UJ5w2Nz41oWsydYPGNHi-11" value="&lt;font style=&quot;font-size: 18px;&quot;&gt;Notes the&amp;nbsp;&lt;/font&gt;&lt;div&gt;&lt;font style=&quot;font-size: 18px;&quot;&gt;Appointment&lt;/font&gt;&lt;/div&gt;" style="text;html=1;align=center;verticalAlign=middle;whiteSpace=wrap;rounded=0;" vertex="1" parent="1">
          <mxGeometry x="490" y="290" width="190" height="100" as="geometry" />
        </mxCell>
        <mxCell id="UJ5w2Nz41oWsydYPGNHi-13" style="edgeStyle=orthogonalEdgeStyle;rounded=0;orthogonalLoop=1;jettySize=auto;html=1;entryX=0.455;entryY=0.013;entryDx=0;entryDy=0;entryPerimeter=0;dashed=1;strokeWidth=2;" edge="1" parent="1" source="UJ5w2Nz41oWsydYPGNHi-7" target="UJ5w2Nz41oWsydYPGNHi-4">
          <mxGeometry relative="1" as="geometry" />
        </mxCell>
        <mxCell id="UJ5w2Nz41oWsydYPGNHi-14" value="&lt;font style=&quot;font-size: 18px;&quot;&gt;SIOUX Parking Platform&lt;/font&gt;&lt;div&gt;&lt;font style=&quot;font-size: 18px;&quot;&gt;[Software System]&lt;/font&gt;&lt;/div&gt;&lt;div&gt;&lt;font style=&quot;font-size: 18px;&quot;&gt;&lt;br&gt;&lt;/font&gt;&lt;/div&gt;&lt;div&gt;&lt;font style=&quot;font-size: 18px;&quot;&gt;Users can view/manage free parking spaces and mark down appointments&lt;/font&gt;&lt;/div&gt;" style="text;html=1;align=center;verticalAlign=middle;whiteSpace=wrap;rounded=0;" vertex="1" parent="1">
          <mxGeometry x="520" y="430" width="270" height="150" as="geometry" />
        </mxCell>
        <mxCell id="UJ5w2Nz41oWsydYPGNHi-17" value="&lt;font style=&quot;font-size: 18px;&quot;&gt;Makes an Appointment&lt;/font&gt;" style="text;html=1;align=center;verticalAlign=middle;whiteSpace=wrap;rounded=0;" vertex="1" parent="1">
          <mxGeometry x="300" y="120" width="190" height="30" as="geometry" />
        </mxCell>
      </root>
    </mxGraphModel>
  </diagram>
</mxfile>
